<svg width="167" height="31" viewBox="0 0 167 31" fill="none" xmlns="http://www.w3.org/2000/svg">
<path d="M165.084 11.4946C162.484 11.4946 160.684 12.7946 159.384 14.3946V11.9946C159.384 11.4946 158.984 10.9946 158.384 10.9946C157.884 10.9946 157.384 11.3946 157.384 11.9946V21.5946C157.384 22.9946 156.284 24.0946 154.884 24.0946C153.484 24.0946 152.384 22.9946 152.384 21.5946V21.1946C152.384 21.0946 152.384 20.8946 152.384 20.7946C152.384 20.6946 152.384 20.6946 152.384 20.5946V17.5946C152.384 17.3946 152.384 17.2946 152.284 17.1946C151.784 13.1946 148.884 11.7946 146.384 11.7946C145.884 11.7946 145.384 12.1946 145.384 12.7946C145.384 13.2946 145.784 13.7946 146.384 13.7946C147.584 13.7946 150.384 14.2946 150.384 18.5946C150.384 18.6946 150.384 18.6946 150.384 18.7946V20.9946C150.184 22.6946 148.784 24.0946 146.984 24.0946C145.084 24.0946 143.584 22.5946 143.584 20.6946C143.584 20.1946 143.184 19.6946 142.584 19.6946C141.984 19.6946 141.584 20.0946 141.584 20.6946C141.584 23.6946 143.984 26.0946 146.984 26.0946C148.684 26.0946 150.184 25.2946 151.184 24.0946C151.984 25.2946 153.384 26.0946 154.884 26.0946C157.384 26.0946 159.384 24.0946 159.384 21.5946V18.6946C159.384 18.5946 160.784 13.5946 165.084 13.5946C165.584 13.5946 166.084 13.1946 166.084 12.5946C166.084 11.8946 165.584 11.4946 165.084 11.4946Z" fill="#F7D71C"/>
<path d="M115.284 14.9945C113.584 16.2945 113.484 18.7945 113.584 19.3945C113.784 20.0945 114.584 20.5945 115.284 20.2945C115.884 20.0945 116.284 19.5945 116.284 18.9945C116.384 17.8945 117.184 16.9945 118.284 16.5945C119.784 16.1945 121.484 16.9945 121.784 18.4945C121.984 19.2945 121.784 19.6945 121.584 20.2945C121.584 20.3945 121.684 20.3945 121.684 20.3945C122.384 18.8945 122.284 17.0945 121.284 15.6945C119.984 13.7945 117.184 13.4945 115.284 14.9945Z" fill="#F7D71C"/>
<path d="M140.584 23.4946C139.884 23.4946 139.284 24.0946 139.284 24.7946C139.284 25.4946 139.884 26.0946 140.584 26.0946C141.284 26.0946 141.884 25.4946 141.884 24.7946C141.884 24.0946 141.284 23.4946 140.584 23.4946Z" fill="#8B2F9A"/>
<path d="M98.8841 24.0946C96.6841 24.0946 95.6841 23.1946 95.5841 18.7946C95.5841 18.7946 95.5841 18.7946 95.5841 18.6946C95.5841 18.5946 95.5841 18.4946 95.5841 18.3946C95.5841 13.3946 92.3841 11.5946 89.5841 11.5946C89.0841 11.5946 88.5841 11.9946 88.5841 12.5946C88.5841 13.0946 88.9841 13.5946 89.5841 13.5946C90.6841 13.5946 93.2841 13.9946 93.5841 17.7946H87.9841C86.8841 17.7946 86.0841 18.0946 85.4841 18.6946C84.7841 19.4946 84.7841 20.3946 84.7841 20.5946C84.7841 23.5946 87.1841 25.9946 90.1841 25.9946C91.9841 25.9946 93.4841 25.0946 94.4841 23.7946C95.2841 25.1946 96.5841 25.9946 98.7841 25.9946C99.2841 25.9946 99.7841 25.5946 99.7841 24.9946C99.7841 24.3946 99.4841 24.0946 98.8841 24.0946ZM93.6841 20.6946C93.6841 22.5946 92.1841 24.0946 90.2841 24.0946C88.3841 24.0946 86.8841 22.5946 86.8841 20.6946C86.8841 20.5946 86.8841 20.3946 87.0841 20.1946C87.2841 19.9946 87.7841 19.8946 88.0841 19.8946H93.6841C93.6841 20.0946 93.6841 20.3946 93.6841 20.5946C93.6841 20.4946 93.6841 20.5946 93.6841 20.6946Z" fill="#8B2F9A"/>
<path d="M110.884 21.9946C110.484 21.5946 109.784 21.6946 109.484 22.0946C108.384 23.2946 106.884 23.9946 105.284 23.9946C102.184 23.9946 99.6841 21.4946 99.6841 18.3946C99.6841 15.2946 102.184 12.7946 105.284 12.7946C106.184 12.7946 107.084 12.9946 107.884 13.4946C108.384 13.7946 108.984 13.5946 109.284 13.0946C109.584 12.5946 109.384 11.9946 108.884 11.6946C107.784 11.0946 106.584 10.7946 105.284 10.7946C101.084 10.7946 97.6841 14.1946 97.6841 18.3946C97.6841 22.5946 101.084 25.9946 105.284 25.9946C107.484 25.9946 109.584 25.0946 110.984 23.3946C111.384 22.9946 111.284 22.3946 110.884 21.9946Z" fill="#8B2F9A"/>
<path d="M88.0841 12.4946C88.0841 11.9946 87.6841 11.4946 87.0841 11.4946C84.4841 11.4946 82.6841 12.7946 81.3841 14.3946V11.9946C81.3841 11.4946 80.9841 10.9946 80.3841 10.9946C79.7841 10.9946 79.3841 11.3946 79.3841 11.9946V21.5946C79.3841 22.9946 78.2841 24.0946 76.8841 24.0946C75.4841 24.0946 74.3841 22.9946 74.3841 21.5946V21.1946C74.3841 21.0946 74.3841 20.8946 74.3841 20.7946C74.3841 20.6946 74.3841 20.6946 74.3841 20.5946V18.9946C74.3841 18.8946 74.3841 18.7946 74.3841 18.6946C74.3841 18.5946 74.3841 18.4946 74.3841 18.3946V17.5946C74.3841 17.3946 74.3841 17.2946 74.2841 17.1946C73.7841 13.1946 70.8841 11.7946 68.3841 11.7946C67.8841 11.7946 67.3841 12.1946 67.3841 12.7946C67.3841 13.2946 67.7841 13.7946 68.3841 13.7946C69.4841 13.7946 71.9841 14.1946 72.2841 17.7946H67.6841C65.6841 17.7946 63.8841 19.1946 61.6841 20.6946C60.2841 21.7946 58.7841 22.8946 57.0841 23.6946H56.9841C56.9841 23.6946 55.9841 24.2946 54.9841 24.2946C50.3841 24.2946 46.4841 20.3946 46.4841 15.7946C46.4841 11.0946 50.2841 7.29456 54.9841 7.29456C56.9841 7.29456 58.8841 7.99456 60.3841 9.19456C60.7841 9.49456 61.3841 9.49456 61.7841 9.09456C62.0841 8.69456 62.0841 8.09456 61.6841 7.69456C59.7841 6.19456 57.4841 5.29456 55.0841 5.29456C49.2841 5.29456 44.5841 9.99456 44.5841 15.7946C44.5841 18.5946 45.6841 21.1946 47.6841 23.1946C49.6841 25.0946 52.3841 26.2946 55.0841 26.2946C56.4841 26.2946 57.6841 25.6946 57.9841 25.4946C59.8841 24.5946 61.4841 23.3946 62.8841 22.2946C63.0841 22.0946 63.3841 21.8946 63.5841 21.7946C63.9841 24.3946 66.2841 26.2946 68.8841 26.2946C70.5841 26.2946 72.0841 25.4946 73.0841 24.2946C73.8841 25.4946 75.2841 26.2946 76.7841 26.2946C79.2841 26.2946 81.2841 24.2946 81.2841 21.7946V18.8946C81.2841 18.7946 82.6841 13.7946 86.9841 13.7946C87.6841 13.4946 88.0841 12.9946 88.0841 12.4946ZM68.9841 24.0946C67.0841 24.0946 65.5841 22.5946 65.5841 20.6946C65.5841 20.5946 65.5841 20.4946 65.4841 20.2946C66.2841 19.7946 66.9841 19.4946 67.6841 19.4946H72.3841V20.9946C72.2841 22.6946 70.7841 24.0946 68.9841 24.0946Z" fill="#8B2F9A"/>
<path d="M151.384 17.4946H145.684C143.684 17.4946 141.884 18.8946 139.684 20.3946C138.284 21.4946 136.784 22.5946 135.084 23.3946H134.984C134.984 23.3946 134.284 23.7946 133.484 23.8946C132.984 23.9946 132.484 23.8946 132.084 23.7946C131.284 23.4946 130.884 22.7946 130.884 21.7946V16.6946C132.684 14.2946 134.984 10.5946 134.984 7.39456C134.984 2.89456 132.584 2.59456 132.084 2.59456C131.184 2.59456 130.284 3.09456 129.684 4.09456C129.084 4.99456 128.784 6.09456 128.784 7.39456V15.9946C128.684 16.0946 128.584 16.1946 128.584 16.2946C127.684 17.3946 126.684 18.4946 125.684 19.4946C125.784 19.0946 125.784 18.6946 125.784 18.2946C125.784 14.0946 122.384 10.6946 118.184 10.6946C113.984 10.6946 110.584 14.0946 110.584 18.2946C110.584 22.4946 113.984 25.8946 118.184 25.8946C119.684 25.8946 121.084 25.4946 122.284 24.6946C124.184 23.5946 126.684 21.4946 128.884 18.9946V21.6946C128.884 23.4946 129.784 24.9946 131.384 25.5946C131.884 25.7946 132.384 25.8946 132.984 25.8946H133.084C133.384 25.8946 133.584 25.8946 133.884 25.7946C135.284 25.5946 136.684 24.9946 137.984 23.9946C139.084 23.2946 140.084 22.5946 140.984 21.8946C142.784 20.4946 144.384 19.3946 145.784 19.3946H151.484C151.984 19.3946 152.484 18.9946 152.484 18.3946C152.384 17.9946 151.984 17.4946 151.384 17.4946ZM130.784 7.49456C130.784 5.49456 131.684 4.69456 131.984 4.69456C132.084 4.69456 132.284 4.79456 132.384 5.09456C132.584 5.39456 132.784 6.09456 132.784 7.49456C132.784 8.99456 132.084 11.0946 130.684 13.2946V7.49456H130.784ZM112.484 18.3946C112.484 15.2946 114.984 12.7946 118.084 12.7946C121.184 12.7946 123.684 15.2946 123.684 18.3946C123.684 20.3946 122.684 22.0946 121.084 23.0946H120.984C120.884 23.0946 120.884 23.1946 120.784 23.1946C119.984 23.6946 118.984 23.9946 117.984 23.9946C114.984 24.0946 112.484 21.4946 112.484 18.3946Z" fill="#8B2F9A"/>
<path d="M27.5841 1.29456C25.2841 2.59456 24.2841 5.29456 24.7841 7.69456C25.3841 12.2946 23.1841 17.0946 18.8841 19.5946C13.0841 22.9946 5.08408 21.2946 2.28408 15.2946C0.684077 12.0946 0.984077 10.0946 1.18408 7.69456C1.18408 7.29456 0.584077 7.19456 0.484077 7.59456C-1.11592 14.3946 1.28408 21.8946 7.18408 26.4946C15.2841 32.8946 27.0841 31.4946 33.4841 23.3946C39.1841 16.0946 37.1841 5.59456 35.7841 3.39456C33.9841 0.594561 30.3841 -0.405439 27.5841 1.29456Z" fill="#8B2F9A"/>
<path d="M7.88408 13.1946C9.18408 12.7946 9.98408 11.6946 9.98408 10.4946C10.2841 8.19456 11.8841 6.19455 14.2841 5.49455C17.4841 4.59456 21.0841 6.29456 21.6841 9.59456C21.9841 11.2946 21.6841 12.1946 21.2841 13.3946C21.1841 13.5946 21.4841 13.6946 21.5841 13.4946C23.1841 10.3946 22.8841 6.59455 20.6841 3.59455C17.5841 -0.405445 11.7841 -1.20544 7.68408 1.89455C4.08408 4.69455 3.78408 9.99456 4.18408 11.1946C4.68408 12.7946 6.28408 13.6946 7.88408 13.1946Z" fill="#F7D71C"/>
</svg>
